<?xml version="1.0" encoding="UTF-8" standalone="no"?>
<!-- Created with Inkscape (http://www.inkscape.org/) -->

<svg
   width="3131.3533"
   height="421.88651"
   viewBox="0 0 3131.3532 421.88651"
   version="1.1"
   id="svg5"
   xmlns="http://www.w3.org/2000/svg"
   xmlns:svg="http://www.w3.org/2000/svg">
  <defs
     id="defs2">
    <rect
       x="512"
       y="0"
       width="1536"
       height="512"
       id="rect49888" />
    <linearGradient
       id="linearGradient3090">
      <stop
         style="stop-color:#00b8ff;stop-opacity:1;"
         offset="0"
         id="stop3088" />
    </linearGradient>
    <linearGradient
       id="linearGradient934">
      <stop
         style="stop-color:#ffffff;stop-opacity:1;"
         offset="0"
         id="stop932" />
    </linearGradient>
    <linearGradient
       id="linearGradient1464">
      <stop
         style="stop-color:#06ffff;stop-opacity:1;"
         offset="0"
         id="stop1462" />
    </linearGradient>
  </defs>
  <g
     id="layer1"
     transform="translate(-2.9334368e-5,-76.430412)">
    <g
       aria-label="SelfAccounting"
       transform="matrix(2.1444795,0,0,2.1444795,-1173.5887,20.20602)"
       id="g6136"
       style="font-size:193.333px;font-family:'Allerta Stencil';-inkscape-font-specification:'Allerta Stencil, Normal';text-align:center;text-anchor:middle;white-space:pre;shape-inside:url(#rect49888);fill:#191919;fill-opacity:1;stroke:#ffffff;stroke-width:0;stroke-linecap:round;stroke-linejoin:round;paint-order:stroke fill markers">
      <path
         d="m 613.34102,62.65694 q -0.94401,-0.377603 -2.26562,-1.321612 -1.32161,-0.944009 -3.77604,-1.699216 -2.45442,-0.944008 -6.23045,-1.510414 -3.77604,-0.566405 -9.62889,-0.188801 V 38.86792 q 8.30727,0.188801 16.80335,1.888017 8.68488,1.510414 13.97133,4.908846 -1.13281,2.454423 -2.64322,5.475251 -1.51042,2.832026 -2.83203,5.47525 -1.32161,2.454423 -2.26562,4.153639 -0.94401,1.699216 -1.13281,1.888017 z m -65.13661,15.10414 q 0,-8.307277 2.83203,-14.915338 2.83203,-6.608061 7.55207,-11.516907 4.90885,-5.097647 11.32811,-7.929673 6.60806,-3.020828 13.78252,-3.964837 v 19.824184 q -6.04165,2.076819 -10.00649,7.363268 -3.96484,5.097647 -3.96484,10.384096 0,7.363269 3.96484,11.894511 3.96484,4.531242 10.00649,7.929673 v 21.523403 q -6.23045,-3.02083 -12.46091,-6.41926 -6.23046,-3.58724 -11.32811,-8.30728 -5.09764,-4.720044 -8.49608,-10.950501 -3.20963,-6.230458 -3.20963,-14.915339 z m 3.02083,77.03111 q 2.64323,1.51042 6.60806,3.02083 4.15364,1.32161 8.49608,2.64323 4.34244,1.13281 8.68488,1.88801 4.34244,0.75521 8.11848,0.75521 h 0.5664 v 17.93617 h -0.3776 q -4.53124,0 -9.44009,-0.56641 -4.72004,-0.3776 -9.62889,-1.51041 -4.90884,-1.13281 -9.44008,-3.02083 -4.34244,-2.07682 -7.55207,-4.90884 z m 40.21478,-54.1861 q 6.23045,2.83203 12.64971,6.04166 6.60806,3.20963 11.89451,7.92967 5.28645,4.53124 8.68488,11.1393 3.39844,6.60807 3.39844,16.42576 0,6.79686 -2.64323,13.21612 -2.45442,6.41926 -7.17447,11.70571 -4.53124,5.09765 -11.3281,8.68488 -6.79686,3.58723 -15.48174,4.72004 v -18.12497 q 15.48174,-3.77603 15.48174,-20.57939 0,-6.60806 -4.34244,-10.9505 -4.34244,-4.34244 -11.1393,-8.11847 z"
         id="path6108"
         style="fill:#191919;fill-opacity:1" />
      <path
         d="m 700.00102,72.852235 q 10.1953,0.944009 18.31377,5.475251 8.30728,4.531242 14.16014,11.705708 5.85285,7.174467 8.87368,16.425756 3.20963,9.25128 3.20963,19.25777 0,4.53125 -0.56641,9.06249 h -64.759 v -16.61456 h 43.61321 q 0,-4.90884 -1.69922,-9.44008 -1.51041,-4.53124 -4.72004,-8.30728 -3.02083,-3.964836 -7.17447,-6.608061 -4.15364,-2.643224 -9.25129,-3.20963 z m -0.7552,89.680835 q 2.07682,0 5.09764,-0.37761 3.20963,-0.5664 6.60807,-1.69921 3.58723,-1.32162 6.98566,-3.20963 3.58723,-1.88802 6.23046,-4.53124 l 8.30728,12.64971 q -6.23046,7.74087 -14.53774,11.70571 -8.30728,3.96484 -21.1458,3.96484 -10.38409,0 -19.44658,-4.15364 -9.06248,-4.34244 -15.48174,-11.70571 -6.41926,-7.36327 -10.19529,-17.18096 -3.77604,-9.81769 -3.77604,-21.14579 0,-10.7617 3.39843,-20.39059 3.58724,-9.628893 9.62889,-16.803359 6.04166,-7.363269 13.97133,-11.894511 8.11848,-4.531242 17.36976,-5.097647 v 18.124968 q -6.98566,1.321612 -11.5169,5.664053 -4.53125,4.342436 -7.17447,10.006496 -2.45442,5.47525 -3.58723,11.3281 -0.94401,5.85286 -0.94401,10.00649 0,7.36327 1.69921,13.78253 1.88802,6.23046 5.66406,10.9505 3.77603,4.53125 9.25128,7.36327 5.66405,2.64323 13.59373,2.64323 z"
         id="path6110"
         style="fill:#191919;fill-opacity:1" />
      <path
         d="m 798.55554,147.80653 q 0,6.41926 1.69922,10.19529 1.69921,3.58724 4.72004,5.47526 3.02083,1.69921 6.79686,2.26562 3.96484,0.5664 8.49608,0.5664 v 13.97133 q -2.45442,0.3776 -5.09765,0.56641 -2.07681,0.1888 -4.90884,0.1888 -2.83203,0.1888 -5.66405,0.1888 -2.83203,0 -5.66406,-0.1888 -2.83202,-0.1888 -5.09764,-0.56641 -6.41926,-1.32161 -10.0065,-5.66405 -3.58723,-4.34244 -5.47525,-9.62889 -1.88801,-5.47525 -2.45442,-10.5729 -0.3776,-5.09764 -0.3776,-7.92967 V 144.4081 33.581471 h 23.03381 z"
         id="path6112"
         style="fill:#191919;fill-opacity:1" />
      <path
         d="m 889.93559,49.440818 q -3.77604,0 -6.41926,1.888017 -2.45443,1.888018 -4.15364,5.286449 -1.69922,3.398432 -2.45442,7.929674 -0.75521,4.34244 -0.94401,9.251286 h 16.42575 v 15.481743 h -16.80336 v 9.062484 81.939959 H 852.55284 V 98.340471 89.277987 H 838.58151 V 73.796244 h 14.34893 q 0.56641,-8.118476 2.26562,-15.481744 1.69922,-7.55207 5.28645,-13.027321 3.77604,-5.664052 10.0065,-9.062484 6.41926,-3.398431 16.04815,-3.398431 2.83202,0 6.04165,0.566405 3.20963,0.377603 6.23046,1.13281 3.20963,0.566406 5.85285,1.510414 2.64323,0.944009 4.15364,2.07682 l -7.36327,13.593726 q -2.64322,-1.510414 -6.41926,-1.888018 -3.58723,-0.377603 -5.09764,-0.377603 z"
         id="path6114"
         style="fill:#191919;fill-opacity:1" />
      <path
         d="m 1048.5291,180.28043 h -23.4115 L 989.05651,76.061865 952.61777,180.28043 H 929.01755 L 977.7284,41.322342 h 22.4674 z m -47.0117,-44.17961 5.4753,15.29294 h -36.06116 l 5.28645,-15.29294 z"
         id="path6116"
         style="fill:#191919;fill-opacity:1" />
      <path
         d="m 1147.4612,101.3613 q -2.832,-3.398432 -7.9297,-6.230459 -4.9088,-3.020828 -13.2161,-3.587233 V 73.41864 q 10.3841,0.566405 17.7474,4.531242 7.552,3.776035 13.5937,11.139303 z m -21.1458,60.98296 q 6.7969,-0.7552 11.5169,-3.20963 4.9088,-2.64322 9.2513,-6.04165 l 8.4961,12.27211 q -5.8529,7.36327 -12.6498,11.32811 -6.7968,3.77603 -16.6145,4.34244 z m -52.6757,-35.30592 q 0,-10.7617 3.0208,-20.20179 3.2097,-9.440088 9.2513,-16.614554 6.0417,-7.174467 14.1601,-11.516907 8.3073,-4.531242 18.5026,-5.286449 v 18.31377 q -9.4401,2.076819 -15.1041,11.70571 -5.6641,9.44009 -5.6641,23.03381 0,6.98567 1.3216,13.21612 1.5105,6.04166 4.1537,10.7617 2.6432,4.72005 6.4192,7.92968 3.9649,3.20963 8.8737,3.96483 v 18.69138 q -10.3841,-0.56641 -18.6914,-4.90885 -8.3072,-4.53124 -14.1601,-11.70571 -5.8528,-7.36326 -9.0625,-16.99215 -3.0208,-9.62889 -3.0208,-20.39059 z"
         id="path6118"
         style="fill:#191919;fill-opacity:1" />
      <path
         d="m 1257.9102,101.3613 q -2.8321,-3.398432 -7.9297,-6.230459 -4.9089,-3.020828 -13.2161,-3.587233 V 73.41864 q 10.3841,0.566405 17.7473,4.531242 7.5521,3.776035 13.5938,11.139303 z m -21.1458,60.98296 q 6.7968,-0.7552 11.5169,-3.20963 4.9088,-2.64322 9.2513,-6.04165 l 8.496,12.27211 q -5.8528,7.36327 -12.6497,11.32811 -6.7968,3.77603 -16.6145,4.34244 z m -52.6757,-35.30592 q 0,-10.7617 3.0208,-20.20179 3.2096,-9.440088 9.2513,-16.614554 6.0416,-7.174467 14.1601,-11.516907 8.3073,-4.531242 18.5026,-5.286449 v 18.31377 q -9.4401,2.076819 -15.1041,11.70571 -5.6641,9.44009 -5.6641,23.03381 0,6.98567 1.3216,13.21612 1.5104,6.04166 4.1537,10.7617 2.6432,4.72005 6.4192,7.92968 3.9648,3.20963 8.8737,3.96483 v 18.69138 q -10.3841,-0.56641 -18.6914,-4.90885 -8.3073,-4.53124 -14.1601,-11.70571 -5.8529,-7.36326 -9.0625,-16.99215 -3.0208,-9.62889 -3.0208,-20.39059 z"
         id="path6120"
         style="fill:#191919;fill-opacity:1" />
      <path
         d="m 1347.591,73.229838 q 10.3841,0.566406 18.8802,5.097648 8.4961,4.34244 14.1601,11.705708 5.8529,7.174467 9.0625,16.803356 3.2096,9.62889 3.2096,20.57939 0,10.9505 -3.3984,20.57939 -3.2096,9.44009 -9.0625,16.61456 -5.8528,6.98566 -14.3489,11.3281 -8.4961,4.34244 -18.5026,5.09765 v -18.12497 q 9.4401,-2.07682 15.2929,-11.89451 6.0417,-9.81769 6.0417,-23.60022 0,-6.98566 -1.5104,-13.02732 -1.3216,-6.23046 -4.1536,-11.1393 -2.8321,-4.908849 -6.7969,-8.118479 -3.9648,-3.209629 -8.8737,-4.153638 z m -52.6757,53.808502 q 0,-10.9505 3.2096,-20.39059 3.2097,-9.440089 9.0625,-16.425754 6.0417,-7.174467 14.349,-11.516907 8.3072,-4.34244 18.3137,-5.286449 v 17.558563 q -9.4401,2.076819 -15.1041,11.894507 -5.6641,9.81769 -5.6641,23.60022 0,6.98567 1.3217,13.21612 1.5104,6.23046 4.1536,11.13931 2.6432,4.90884 6.4193,8.11847 3.9648,3.20963 8.8736,3.96484 v 18.12497 q -10.3841,-0.75521 -18.6913,-5.09765 -8.3073,-4.53124 -14.1602,-11.70571 -5.8528,-7.17446 -9.0625,-16.80335 -3.0208,-9.62889 -3.0208,-20.39059 z"
         id="path6122"
         style="fill:#191919;fill-opacity:1" />
      <path
         d="m 1444.8239,131.75838 q 0,6.60806 0.5664,12.46092 0.5664,5.66405 2.4544,10.00649 1.888,4.34244 5.6641,6.98566 3.776,2.64323 10.0065,2.64323 2.4544,0 6.9856,-0.75521 4.5313,-0.75521 8.6849,-2.45442 v 13.97133 q -4.9088,2.64322 -10.7617,4.72004 -5.664,1.88802 -11.3281,1.88802 -4.5312,0 -8.1185,-0.94401 -3.5872,-0.75521 -6.7968,-2.45442 -3.0208,-1.88802 -5.8529,-4.15364 -2.832,-2.26562 -5.664,-5.09765 -3.2097,-3.20963 -5.0977,-7.36327 -1.888,-4.34244 -2.832,-8.87368 -0.7552,-4.72004 -0.944,-9.44009 0,-4.72004 0,-9.25128 V 73.796244 h 23.0338 z m 65.1366,-57.962136 V 180.28043 h -20.5794 l -2.4544,-10.9505 V 73.796244 Z"
         id="path6124"
         style="fill:#191919;fill-opacity:1" />
      <path
         d="m 1562.4474,73.796244 2.4544,10.761699 v 95.722487 h -22.845 V 73.796244 Z m 58.9062,11.705708 q 3.2096,3.20963 4.9088,7.55207 1.888,4.153639 2.6432,8.873678 0.944,4.53125 1.1328,9.25129 0.1888,4.72004 0.1888,9.25129 v 56.07412 3.77603 h -23.0338 v -57.96214 q 0,-6.41926 -0.5664,-12.27211 -0.5664,-5.85285 -2.6432,-10.384097 -2.0768,-4.531242 -5.664,-6.985664 -3.5873,-2.643225 -10.0065,-2.643225 -2.6433,0 -7.1745,0.944009 -4.3424,0.755207 -8.4961,2.643224 V 79.082693 q 5.0977,-2.643225 10.9505,-4.531242 6.0417,-1.888018 11.7057,-1.888018 8.4961,0 14.349,3.587233 5.8528,3.398432 11.7057,9.251286 z"
         id="path6126"
         style="fill:#191919;fill-opacity:1" />
      <path
         d="m 1692.1542,147.99533 q 0,6.41926 1.6992,10.00649 1.6993,3.58724 4.7201,5.47526 3.2096,1.88801 6.9857,2.45442 3.9648,0.3776 8.3072,0.3776 v 13.97133 q -2.4544,0.3776 -4.9088,0.56641 -2.0768,0.1888 -5.0977,0.1888 -2.832,0.1888 -5.664,0.1888 -2.832,0 -5.8529,-0.1888 -2.832,-0.1888 -4.9088,-0.56641 -6.4193,-1.13281 -10.0065,-5.47525 -3.5872,-4.53124 -5.4753,-9.81769 -1.6992,-5.47525 -2.2656,-10.5729 -0.3776,-5.09764 -0.3776,-7.92967 V 89.277987 h -13.9713 V 73.796244 h 13.9713 V 43.587963 h 22.845 v 30.208281 h 16.9922 v 15.481743 h -16.9922 z"
         id="path6128"
         style="fill:#191919;fill-opacity:1" />
      <path
         d="m 1763.5212,180.28043 h -23.0338 V 73.796244 h 23.0338 z m 2.0768,-140.468502 q 0,5.664053 -3.9648,9.62889 -3.9648,3.776035 -9.6289,3.776035 -5.664,0 -9.6289,-3.964837 -3.776,-3.964837 -3.776,-9.440088 0,-5.664052 3.9648,-9.628889 3.9649,-3.964837 9.4401,-3.964837 5.6641,0 9.6289,3.964837 3.9648,3.964837 3.9648,9.628889 z"
         id="path6130"
         style="fill:#191919;fill-opacity:1" />
      <path
         d="m 1816.0081,73.796244 2.4544,10.761699 v 95.722487 h -22.845 V 73.796244 Z m 58.9061,11.705708 q 3.2097,3.20963 4.9089,7.55207 1.888,4.153639 2.6432,8.873678 0.944,4.53125 1.1328,9.25129 0.1888,4.72004 0.1888,9.25129 v 56.07412 3.77603 h -23.0338 v -57.96214 q 0,-6.41926 -0.5664,-12.27211 -0.5664,-5.85285 -2.6432,-10.384097 -2.0768,-4.531242 -5.6641,-6.985664 -3.5872,-2.643225 -10.0065,-2.643225 -2.6432,0 -7.1744,0.944009 -4.3425,0.755207 -8.4961,2.643224 V 79.082693 q 5.0976,-2.643225 10.9505,-4.531242 6.0416,-1.888018 11.7057,-1.888018 8.4961,0 14.3489,3.587233 5.8529,3.398432 11.7057,9.251286 z"
         id="path6132"
         style="fill:#191919;fill-opacity:1" />
      <path
         d="m 1954.0222,181.03565 q -10.5729,0 -18.5026,-4.53125 -7.9297,-4.72005 -13.2161,-12.46092 -5.2865,-7.74087 -7.7409,-17.74735 -2.4544,-10.0065 -2.4544,-20.957 0,-14.72653 3.9648,-24.73303 4.1537,-10.006497 10.3841,-16.236957 6.4193,-6.41926 14.1602,-9.06249 7.9296,-2.64322 15.4817,-2.64322 5.8529,0 11.1393,1.32161 5.2864,1.32161 9.6289,3.77604 v 20.01298 q -3.0208,-3.39843 -7.1745,-5.47525 -3.9648,-2.07682 -8.6849,-2.07682 -5.664,0 -10.3841,3.02083 -4.5312,2.83203 -7.7408,7.740887 -3.2097,4.90884 -4.9089,11.5169 -1.6992,6.60807 -1.6992,13.97133 0,7.55206 1.6992,14.34894 1.888,6.60805 5.0977,11.51688 3.3984,4.90885 7.9296,7.92968 4.7201,2.83202 10.3841,2.83202 4.7201,0 8.4961,-1.88801 3.7761,-2.07682 6.9857,-5.28645 v 19.63539 q -4.5313,2.26562 -10.3841,3.96484 -5.8529,1.5104 -12.4609,1.51042 z m 53.4309,-107.428207 -0.1888,106.484177 q -0.7552,11.51691 -4.7201,19.63538 -3.776,8.11848 -9.8177,13.40493 -6.0416,5.28645 -13.9713,7.55207 -7.9297,2.26562 -16.9922,2.26562 -10.5728,0 -20.9569,-3.77604 -10.1953,-3.58723 -16.9922,-12.27211 l 13.2161,-13.0273 q 1.888,3.20961 4.7201,5.28643 3.0208,2.07682 6.0416,3.20963 3.2096,1.13281 6.2305,1.51041 3.2096,0.56641 5.664,0.56641 11.7057,0 18.3138,-6.79687 6.6081,-6.79685 6.6081,-23.2226 V 84.369143 l 2.4544,-10.7617 z"
         id="path6134"
         style="fill:#191919;fill-opacity:1" />
    </g>
  </g>
</svg>
